# Blender v2.93.5 OBJ File: 'water-well.blend'
# www.blender.org
mtllib water-well.mtl
o well_Cylinder.001
v -0.000000 -0.963141 -3.738559
v -0.000000 0.963141 -3.738559
v 1.869280 -0.963141 -3.237687
v 1.869280 0.963141 -3.237687
v 3.237687 -0.963141 -1.869280
v 3.237687 0.963141 -1.869280
v 3.738559 -0.963141 -0.000000
v 3.738559 0.963141 -0.000000
v 3.237687 -0.963141 1.869280
v 3.237687 0.963141 1.869280
v 1.869280 -0.963141 3.237687
v 1.869280 0.963141 3.237687
v -0.000000 -0.963141 3.738559
v -0.000000 0.963141 3.738559
v -1.869280 -0.963141 3.237687
v -1.869280 0.963141 3.237687
v -3.237687 -0.963141 1.869280
v -3.237687 0.963141 1.869280
v -3.738559 -0.963141 -0.000000
v -3.738559 0.963141 -0.000000
v -3.237687 -0.963141 -1.869280
v -3.237687 0.963141 -1.869280
v -1.869280 -0.963141 -3.237687
v -1.869280 0.963141 -3.237687
v 1.530711 0.963141 -2.651269
v -0.000000 0.963141 -3.061422
v 2.651269 0.963141 -1.530711
v 3.061422 0.963141 -0.000000
v 2.651269 0.963141 1.530711
v 1.530711 0.963141 2.651269
v -0.000000 0.963141 3.061422
v -1.530711 0.963141 2.651269
v -2.651269 0.963141 1.530711
v -3.061422 0.963141 -0.000000
v -2.651269 0.963141 -1.530711
v -1.530711 0.963141 -2.651269
v 1.530711 0.190368 -2.651269
v -0.000000 0.190368 -3.061422
v 2.651269 0.190368 -1.530711
v 3.061422 0.190368 -0.000000
v 2.651269 0.190368 1.530711
v 1.530711 0.190368 2.651269
v -0.000000 0.190368 3.061422
v -1.530711 0.190368 2.651269
v -2.651269 0.190368 1.530711
v -3.061422 0.190368 -0.000000
v -2.651269 0.190368 -1.530711
v -1.530711 0.190368 -2.651269
vt 0.500000 0.628812
vt 0.750000 0.371188
vt 0.500000 0.371188
vt 0.750000 0.628812
vt 0.933013 0.371188
vt 0.750000 0.628812
vt 0.500000 0.371188
vt 0.750000 0.371188
vt 0.500000 0.628812
vt 0.250000 0.371188
vt 0.933013 0.628812
vt 0.750000 0.371188
vt 0.933013 0.371188
vt 0.750000 0.628812
vt 0.500000 0.371188
vt 0.500000 0.628812
vt 0.250000 0.371188
vt 0.250000 0.628812
vt 0.066987 0.371188
vt 0.250000 0.628812
vt 0.500000 0.371188
vt 0.250000 0.371188
vt 0.500000 0.628812
vt 0.750000 0.371188
vt 0.500000 1.000000
vt 0.295281 0.854584
vt 0.500000 0.909439
vt 0.066987 0.628812
vt 0.250000 0.371188
vt 0.066987 0.371188
vt 0.250000 0.628812
vt 1.000000 0.500000
vt 0.250000 0.066987
vt 0.250000 0.933013
vt 0.500000 0.628812
vt 0.295281 0.525460
vt 0.295281 0.628812
vt 0.704719 0.854584
vt 0.750000 0.933013
vt 1.000000 0.500000
vt 0.854584 0.704719
vt 0.909439 0.500000
vt 0.066987 0.750000
vt 0.250000 0.933013
vt 0.933013 0.750000
vt 0.000000 0.500000
vt 0.145416 0.704719
vt 0.145416 0.295281
vt 0.090561 0.500000
vt 0.250000 0.066987
vt 0.066987 0.250000
vt 0.500000 0.000000
vt 0.295281 0.145416
vt 0.704719 0.145416
vt 0.500000 0.090561
vt 0.933013 0.250000
vt 0.750000 0.066987
vt 0.854584 0.295281
vt 0.500000 0.628812
vt 0.295281 0.525460
vt 0.295281 0.628812
vt 0.145416 0.628812
vt 0.295281 0.525460
vt 0.295281 0.628812
vt 0.500000 0.628812
vt 0.704719 0.525460
vt 0.704719 0.628812
vt 0.145416 0.525460
vt 0.145416 0.628812
vt 0.854584 0.628812
vt 0.704719 0.525460
vt 0.704719 0.628812
vt 0.500000 0.525460
vt 0.854584 0.525460
vt 0.854584 0.628812
vt 0.295281 0.628812
vt 0.500000 0.525460
vt 0.500000 0.628812
vt 0.500000 0.525460
vt 0.704719 0.628812
vt 0.500000 0.525460
vt 0.704719 0.525460
vt 0.704719 0.628812
vt 0.933013 0.628812
vt 0.250000 0.628812
vt 0.066987 0.628812
vt 0.750000 0.628812
vt 0.500000 1.000000
vt 0.750000 0.933013
vt 0.933013 0.750000
vt 0.933013 0.250000
vt 0.750000 0.066987
vt 0.500000 0.000000
vt 0.066987 0.250000
vt 0.000000 0.500000
vt 0.066987 0.750000
vt 0.145416 0.525460
vt 0.854584 0.525460
vt 0.295281 0.525460
vt 0.704719 0.525460
vn 0.2588 0.0000 -0.9659
vn 0.7071 0.0000 -0.7071
vn 0.9659 0.0000 -0.2588
vn 0.9659 0.0000 0.2588
vn 0.7071 0.0000 0.7071
vn 0.2588 0.0000 0.9659
vn -0.2588 0.0000 0.9659
vn -0.7071 0.0000 0.7071
vn -0.9659 0.0000 0.2588
vn -0.9659 0.0000 -0.2588
vn 0.0000 1.0000 0.0000
vn -0.7071 0.0000 -0.7071
vn -0.2588 0.0000 -0.9659
vn 0.0000 -1.0000 0.0000
usemtl Orange
s off
f 2/1/1 3/2/1 1/3/1
f 4/4/2 5/5/2 3/2/2
f 6/6/3 7/7/3 5/8/3
f 8/9/4 9/10/4 7/7/4
f 10/11/5 11/12/5 9/13/5
f 12/14/6 13/15/6 11/12/6
f 14/16/7 15/17/7 13/15/7
f 16/18/8 17/19/8 15/17/8
f 18/20/9 19/21/9 17/22/9
f 20/23/10 21/24/10 19/21/10
f 2/25/11 36/26/11 26/27/11
f 22/28/12 23/29/12 21/30/12
f 24/31/13 1/3/13 23/29/13
f 7/32/14 15/33/14 23/34/14
f 31/35/1 44/36/1 32/37/1
f 2/25/11 25/38/11 4/39/11
f 8/40/11 27/41/11 28/42/11
f 22/43/11 36/26/11 24/44/11
f 4/39/11 27/41/11 6/45/11
f 20/46/11 35/47/11 22/43/11
f 20/46/11 33/48/11 34/49/11
f 16/50/11 33/48/11 18/51/11
f 14/52/11 32/53/11 16/50/11
f 14/52/11 30/54/11 31/55/11
f 10/56/11 30/54/11 12/57/11
f 8/40/11 29/58/11 10/56/11
f 28/59/10 41/60/10 29/61/10
f 35/62/5 48/63/5 36/64/5
f 26/65/7 37/66/7 25/67/7
f 32/37/2 45/68/2 33/69/2
f 29/70/12 42/71/12 30/72/12
f 36/64/6 38/73/6 26/65/6
f 25/67/8 39/74/8 27/75/8
f 33/76/3 46/77/3 34/78/3
f 30/72/13 43/79/13 31/35/13
f 27/80/9 40/81/9 28/59/9
f 34/78/4 47/82/4 35/83/4
f 2/1/1 4/4/1 3/2/1
f 4/4/2 6/84/2 5/5/2
f 6/6/3 8/9/3 7/7/3
f 8/9/4 10/85/4 9/10/4
f 10/11/5 12/14/5 11/12/5
f 12/14/6 14/16/6 13/15/6
f 14/16/7 16/18/7 15/17/7
f 16/18/8 18/86/8 17/19/8
f 18/20/9 20/23/9 19/21/9
f 20/23/10 22/87/10 21/24/10
f 2/25/11 24/44/11 36/26/11
f 22/28/12 24/31/12 23/29/12
f 24/31/13 2/1/13 1/3/13
f 23/34/14 1/88/14 3/89/14
f 3/89/14 5/90/14 7/32/14
f 7/32/14 9/91/14 11/92/14
f 11/92/14 13/93/14 15/33/14
f 15/33/14 17/94/14 19/95/14
f 19/95/14 21/96/14 23/34/14
f 23/34/14 3/89/14 7/32/14
f 7/32/14 11/92/14 15/33/14
f 15/33/14 19/95/14 23/34/14
f 31/35/1 43/79/1 44/36/1
f 2/25/11 26/27/11 25/38/11
f 8/40/11 6/45/11 27/41/11
f 22/43/11 35/47/11 36/26/11
f 4/39/11 25/38/11 27/41/11
f 20/46/11 34/49/11 35/47/11
f 20/46/11 18/51/11 33/48/11
f 16/50/11 32/53/11 33/48/11
f 14/52/11 31/55/11 32/53/11
f 14/52/11 12/57/11 30/54/11
f 10/56/11 29/58/11 30/54/11
f 8/40/11 28/42/11 29/58/11
f 28/59/10 40/81/10 41/60/10
f 35/62/5 47/97/5 48/63/5
f 26/65/7 38/73/7 37/66/7
f 32/37/2 44/36/2 45/68/2
f 29/70/12 41/98/12 42/71/12
f 36/64/6 48/63/6 38/73/6
f 25/67/8 37/66/8 39/74/8
f 33/76/3 45/99/3 46/77/3
f 30/72/13 42/71/13 43/79/13
f 27/80/9 39/100/9 40/81/9
f 34/78/4 46/77/4 47/82/4
o water_Cylinder.002
v 1.530711 0.190368 -2.651269
v -0.000000 0.190368 -3.061422
v 2.651269 0.190368 -1.530711
v 3.061422 0.190368 -0.000000
v 2.651269 0.190368 1.530711
v 1.530711 0.190368 2.651269
v -0.000000 0.190368 3.061422
v -1.530711 0.190368 2.651269
v -2.651269 0.190368 1.530711
v -3.061422 0.190368 -0.000000
v -2.651269 0.190368 -1.530711
v -1.530711 0.190368 -2.651269
vt 0.042154 0.370000
vt 0.250000 0.010000
vt 0.457846 0.370000
vt 0.370000 0.457846
vt 0.250000 0.490000
vt 0.130000 0.457846
vt 0.010000 0.250000
vt 0.042154 0.130000
vt 0.130000 0.042154
vt 0.370000 0.042154
vt 0.457846 0.130000
vt 0.490000 0.250000
vn 0.0000 1.0000 0.0000
usemtl Blue
s off
f 59/101/15 55/102/15 51/103/15
f 51/103/15 49/104/15 50/105/15
f 50/105/15 60/106/15 59/101/15
f 59/101/15 58/107/15 57/108/15
f 57/108/15 56/109/15 59/101/15
f 56/109/15 55/102/15 59/101/15
f 55/102/15 54/110/15 53/111/15
f 53/111/15 52/112/15 55/102/15
f 52/112/15 51/103/15 55/102/15
f 51/103/15 50/105/15 59/101/15
